<mxfile host="app.diagrams.net" modified="2020-12-09T02:19:16.353Z" agent="5.0 (Macintosh; Intel Mac OS X 10_15_5) AppleWebKit/537.36 (KHTML, like Gecko) Chrome/86.0.4240.111 Safari/537.36" etag="hzN6oZ9NjWjT7bB1N8Yo" version="13.11.0" type="github">
  <diagram id="zE4-6fLkV4HuHg3Pray8" name="Page-1">
    <mxGraphModel dx="1186" dy="740" grid="1" gridSize="10" guides="1" tooltips="1" connect="1" arrows="1" fold="1" page="1" pageScale="1" pageWidth="827" pageHeight="1169" math="0" shadow="0">
      <root>
        <mxCell id="0" />
        <mxCell id="1" parent="0" />
        <mxCell id="qXmPvSC_KP-FTHAv0qoT-1" value="&lt;br&gt;&lt;br&gt;&lt;span&gt;&amp;nbsp; &amp;nbsp; &amp;nbsp; &amp;nbsp; &amp;nbsp; &amp;nbsp; &amp;nbsp; &amp;nbsp; &amp;nbsp; &amp;nbsp; &amp;nbsp; &amp;nbsp; &amp;nbsp; &amp;nbsp; &amp;nbsp; &amp;nbsp; #container&lt;/span&gt;" style="whiteSpace=wrap;html=1;aspect=fixed;align=left;verticalAlign=top;fillColor=#fff2cc;strokeColor=#d6b656;" vertex="1" parent="1">
          <mxGeometry y="100" width="710" height="710" as="geometry" />
        </mxCell>
        <mxCell id="qXmPvSC_KP-FTHAv0qoT-2" value="header" style="rounded=0;whiteSpace=wrap;html=1;fillColor=#dae8fc;strokeColor=#6c8ebf;" vertex="1" parent="1">
          <mxGeometry y="100" width="710" height="30" as="geometry" />
        </mxCell>
        <mxCell id="qXmPvSC_KP-FTHAv0qoT-3" value="menu&lt;br&gt;&lt;br&gt;&lt;h3 style=&quot;line-height: 100%&quot;&gt;菜单1&lt;/h3&gt;子1-1&lt;br&gt;子2=2&lt;br&gt;&lt;br&gt;&lt;h3&gt;菜单2&lt;/h3&gt;子2-1&lt;br&gt;子2-2" style="rounded=0;whiteSpace=wrap;html=1;horizontal=1;verticalAlign=top;fillColor=#dae8fc;strokeColor=#6c8ebf;" vertex="1" parent="1">
          <mxGeometry y="130" width="90" height="680" as="geometry" />
        </mxCell>
        <mxCell id="qXmPvSC_KP-FTHAv0qoT-4" value="&amp;nbsp; &amp;nbsp; &amp;nbsp; &amp;nbsp; &amp;nbsp;https://${host}/t3-general-base/#/${path}" style="rounded=1;whiteSpace=wrap;html=1;align=left;" vertex="1" parent="1">
          <mxGeometry y="60" width="710" height="30" as="geometry" />
        </mxCell>
      </root>
    </mxGraphModel>
  </diagram>
</mxfile>
